# xmcd
#
# Track frame offsets: 
#        182
#        13725
#        31450
#        44640
#        57747
#        71727
#        86195
#        97712
#        108462
#        123010
#        139987
#        156387
#        172017
#        189212
#        209107
#
# Disc length: 2964 seconds
#
# Revision: 0
# Processed by: cddbd v1.5.2PL0 Copyright (c) Steve Scherf et al.
# Submitted via: ExactAudioCopy v1.0b1
#
DISCID=e00b920f
DTITLE=Various Artist - Blues at Newport
DYEAR=1963
DGENRE=Blues
TTITLE0=Long Gone (B. McGee and Sonny Terry)
TTITLE1=Key to the highway  (B. McGee and Sonny Terry)
TTITLE2=Candy man (Mississippi John Hurt)
TTITLE3=Trouble, I 've had it all my days (Mississippi John Hurt)
TTITLE4=Frankie (Mississippi John Hurt)
TTITLE5=No money down (John Hammond)
TTITLE6=Me and the Devil (John Hammond)
TTITLE7=Tallahassee woman (John Hammond)
TTITLE8=Samson and Delilah (Rvd. Gary Davis)
TTITLE9=You got to move  (Rvd. Gary Davis)
TTITLE10=Sometimes you make me feel so bad (John Lee Hooker)
TTITLE11=Bus station blues (John Lee Hooker)
TTITLE12=That will never happen no more (Dave Van Ronk)
TTITLE13=Gambler's Blues - St James Infirmary (Dave Van Ronk)
TTITLE14=Walk on (B. McGee and Sonny Terry)
EXTD=
EXTT0=
EXTT1=
EXTT2=
EXTT3=
EXTT4=
EXTT5=
EXTT6=
EXTT7=
EXTT8=
EXTT9=
EXTT10=
EXTT11=
EXTT12=
EXTT13=
EXTT14=
PLAYORDER=
